<?xml version="1.0" encoding="utf-8"?>
<!-- Generator: Adobe Illustrator 16.0.0, SVG Export Plug-In . SVG Version: 6.00 Build 0)  -->
<!DOCTYPE svg PUBLIC "-//W3C//DTD SVG 1.1//EN" "http://www.w3.org/Graphics/SVG/1.1/DTD/svg11.dtd">
<svg version="1.1" id="Ebene_1" xmlns="http://www.w3.org/2000/svg" xmlns:xlink="http://www.w3.org/1999/xlink" x="0px" y="0px"
	 width="250px" height="250px" viewBox="0 0 250 250" enable-background="new 0 0 250 250" xml:space="preserve">
<g id="_x38__1_">
	<g>
		<path fill="#EAEAEA" d="M206.875,114.375c0,0,0.875,1.125,1.125,4.125s-0.125,1.625-0.125,1.625s-21.25,64.625-22.375,68.75
			s-3.75,6.75-9.375,5.25S61.375,163.875,58.75,163s-3.125-4.625-2.625-6.75S206.875,114.375,206.875,114.375z"/>
		<path fill="#FFFFFF" stroke="#EAEAEA" stroke-miterlimit="10" d="M208.679,106.687c-0.339,2.949-3.251,4.894-6.484,4.368
			L98.344,94.194c-2.294-0.371-4.254-2.7-4.393-5.222l-3.863-69.574c-0.169-3.083,1.738-5.555,4.283-5.498l117.836,2.618
			c3.749,0.083,6.467,3.232,6.031,6.999L208.679,106.687z"/>
		<polygon opacity="0.3" fill="#CCCCCC" points="201.23,104.086 99.26,88.562 96.042,21.089 209.399,25.03 		"/>
		<path fill="#FFFFFF" stroke="#EAEAEA" stroke-miterlimit="10" d="M183.537,186.738c-1.081,3.217-4.833,5.1-8.344,4.176
			L59.016,160.297c-2.644-0.697-3.495-3.392-1.935-5.998l34.529-57.593c1.224-2.042,4.169-3.353,6.593-2.938L202.82,111.58
			c3.105,0.529,4.979,2.912,4.162,5.346L183.537,186.738z"/>
		<path fill="#EAEAEA" d="M192.403,108.958c-0.065,0.716-1.018,1.147-2.128,0.967l-83.207-13.608
			c-0.845-0.139-1.55-0.766-1.575-1.402l0,0c-0.024-0.635,0.644-1.042,1.491-0.907l83.518,13.33
			C191.616,107.515,192.466,108.242,192.403,108.958L192.403,108.958z"/>
		<path id="Tastatur_2_" opacity="0.3" fill="#CCCCCC" d="M187.067,118.843l-0.886,2.362c-0.081,0.215,0.068,0.428,0.34,0.478
			l5.306,0.977c0.273,0.052,0.555-0.084,0.634-0.3l0.863-2.383c0.075-0.216-0.082-0.427-0.35-0.476l-5.278-0.953
			C187.427,118.499,187.15,118.63,187.067,118.843z M101.599,106.731l-4.324-0.801c-0.219-0.041-0.48,0.078-0.591,0.266
			l-2.197,3.813c-0.11,0.189-0.023,0.379,0.196,0.421l4.353,0.832c0.223,0.044,0.489-0.076,0.599-0.271l2.171-3.843
			C101.916,106.959,101.822,106.773,101.599,106.731z M107.638,107.852l-4.388-0.814c-0.22-0.042-0.486,0.079-0.594,0.27
			l-2.166,3.85c-0.107,0.192-0.015,0.384,0.206,0.425l4.417,0.846c0.226,0.043,0.494-0.079,0.604-0.274l2.137-3.882
			C107.958,108.081,107.863,107.893,107.638,107.852z M113.767,108.986l-4.453-0.826c-0.226-0.041-0.489,0.08-0.595,0.27
			l-2.134,3.888c-0.107,0.195-0.01,0.389,0.219,0.432l4.479,0.858c0.23,0.043,0.5-0.081,0.607-0.276l2.103-3.921
			C114.097,109.218,113.996,109.027,113.767,108.986z M119.985,110.138l-4.516-0.838c-0.229-0.042-0.5,0.08-0.602,0.273
			l-2.099,3.925c-0.102,0.197-0.005,0.394,0.226,0.436l4.55,0.871c0.233,0.045,0.506-0.08,0.607-0.278l2.07-3.96
			C120.323,110.372,120.216,110.18,119.985,110.138z M126.295,111.305l-4.582-0.848c-0.232-0.044-0.503,0.08-0.604,0.274
			l-2.062,3.966c-0.104,0.199,0.002,0.396,0.234,0.44l4.615,0.883c0.238,0.045,0.511-0.08,0.615-0.281l2.029-3.999
			C126.639,111.544,126.533,111.35,126.295,111.305z M132.705,112.492l-4.658-0.861c-0.231-0.044-0.502,0.081-0.601,0.278
			l-2.027,4.004c-0.1,0.201,0.008,0.4,0.244,0.444l4.689,0.898c0.239,0.045,0.514-0.082,0.613-0.284l1.992-4.04
			C133.057,112.733,132.943,112.537,132.705,112.492z M139.206,113.697l-4.722-0.875c-0.238-0.045-0.512,0.081-0.61,0.28
			l-1.985,4.045c-0.101,0.203,0.016,0.403,0.256,0.451l4.757,0.91c0.245,0.047,0.521-0.083,0.618-0.289l1.951-4.079
			C139.57,113.941,139.449,113.742,139.206,113.697z M145.812,114.921l-4.798-0.891c-0.243-0.043-0.515,0.084-0.611,0.285
			l-1.946,4.087c-0.098,0.203,0.022,0.408,0.264,0.454l4.835,0.925c0.246,0.048,0.523-0.082,0.621-0.289l1.908-4.12
			C146.179,115.168,146.055,114.966,145.812,114.921z M152.513,116.163l-4.869-0.903c-0.248-0.044-0.52,0.084-0.613,0.287
			l-1.904,4.126c-0.095,0.208,0.025,0.414,0.275,0.462l4.905,0.938c0.255,0.049,0.53-0.084,0.625-0.291l1.868-4.165
			C152.894,116.413,152.763,116.209,152.513,116.163z M159.322,117.423l-4.943-0.916c-0.251-0.048-0.529,0.083-0.62,0.288
			l-1.861,4.171c-0.089,0.209,0.037,0.419,0.289,0.467l4.983,0.952c0.256,0.051,0.536-0.082,0.628-0.294l1.824-4.207
			C159.709,117.678,159.579,117.471,159.322,117.423z M166.24,118.705l-5.025-0.931c-0.255-0.047-0.532,0.084-0.619,0.291
			l-1.817,4.214c-0.088,0.211,0.041,0.422,0.295,0.47l5.067,0.97c0.258,0.05,0.538-0.083,0.628-0.297l1.778-4.253
			C166.632,118.961,166.497,118.752,166.24,118.705z M173.259,120.007l-5.099-0.945c-0.26-0.048-0.538,0.083-0.627,0.291
			l-1.769,4.26c-0.088,0.214,0.049,0.427,0.31,0.478l5.146,0.982c0.265,0.053,0.546-0.081,0.631-0.298l1.728-4.298
			C173.665,120.265,173.523,120.055,173.259,120.007z M180.398,121.327l-5.184-0.96c-0.263-0.049-0.542,0.084-0.627,0.296
			l-1.723,4.304c-0.085,0.217,0.056,0.432,0.321,0.482l5.229,1.001c0.266,0.052,0.548-0.085,0.634-0.304l1.676-4.343
			C180.808,121.591,180.665,121.378,180.398,121.327z M108.033,113.719l-4.456-0.856c-0.227-0.044-0.495,0.08-0.6,0.275
			l-2.198,3.956c-0.111,0.197-0.019,0.395,0.209,0.439l4.484,0.89c0.23,0.046,0.502-0.08,0.608-0.28l2.17-3.988
			C108.357,113.957,108.261,113.763,108.033,113.719z M101.899,112.54l-7.59-1.46c-0.219-0.042-0.486,0.081-0.597,0.272
			l-2.246,3.896c-0.115,0.194-0.028,0.388,0.194,0.432l7.637,1.517c0.231,0.045,0.499-0.078,0.61-0.277l2.2-3.949
			C102.216,112.776,102.124,112.582,101.899,112.54z M114.255,114.915l-4.522-0.871c-0.228-0.043-0.5,0.082-0.604,0.278
			l-2.162,3.995c-0.109,0.2-0.012,0.4,0.221,0.446l4.547,0.902c0.237,0.046,0.511-0.08,0.618-0.281l2.133-4.031
			C114.589,115.156,114.487,114.959,114.255,114.915z M120.573,116.129l-4.589-0.882c-0.231-0.046-0.508,0.079-0.609,0.278
			l-2.128,4.037c-0.104,0.201,0,0.402,0.232,0.449l4.623,0.918c0.232,0.045,0.508-0.082,0.613-0.285l2.097-4.071
			C120.911,116.372,120.808,116.173,120.573,116.129z M126.986,117.361l-4.659-0.896c-0.235-0.044-0.51,0.081-0.612,0.282
			l-2.09,4.076c-0.104,0.205,0.003,0.407,0.239,0.455l4.696,0.932c0.236,0.047,0.515-0.08,0.616-0.286l2.06-4.113
			C127.334,117.607,127.224,117.406,126.986,117.361z M133.496,118.612l-4.728-0.909c-0.242-0.046-0.517,0.08-0.616,0.285
			l-2.053,4.117c-0.103,0.207,0.009,0.413,0.253,0.46l4.763,0.944c0.245,0.05,0.524-0.079,0.623-0.287l2.019-4.156
			C133.853,118.861,133.738,118.658,133.496,118.612z M140.11,119.884l-4.805-0.924c-0.244-0.047-0.52,0.08-0.621,0.286
			l-2.008,4.161c-0.102,0.208,0.016,0.417,0.261,0.466l4.837,0.96c0.248,0.048,0.527-0.082,0.63-0.291l1.97-4.2
			C140.474,120.137,140.353,119.931,140.11,119.884z M146.822,121.174l-4.876-0.937c-0.25-0.049-0.526,0.08-0.623,0.288
			l-1.967,4.205c-0.1,0.209,0.021,0.42,0.271,0.471l4.914,0.974c0.249,0.05,0.533-0.084,0.628-0.294l1.931-4.244
			C147.197,121.43,147.072,121.221,146.822,121.174z M153.64,122.483l-4.955-0.951c-0.248-0.049-0.529,0.081-0.622,0.291
			l-1.927,4.249c-0.097,0.213,0.03,0.426,0.281,0.475l4.994,0.992c0.256,0.051,0.537-0.083,0.632-0.299l1.887-4.287
			C154.025,122.742,153.895,122.532,153.64,122.483z M160.567,123.815l-5.031-0.967c-0.256-0.051-0.534,0.082-0.63,0.293
			l-1.879,4.293c-0.094,0.215,0.036,0.432,0.296,0.483l5.067,1.005c0.26,0.051,0.546-0.082,0.639-0.298l1.839-4.335
			C160.958,124.077,160.823,123.863,160.567,123.815z M167.605,125.167l-5.116-0.982c-0.255-0.051-0.538,0.083-0.63,0.298
			l-1.833,4.339c-0.092,0.216,0.047,0.436,0.305,0.486l5.154,1.022c0.261,0.054,0.547-0.083,0.638-0.302l1.794-4.38
			C168.003,125.434,167.862,125.218,167.605,125.167z M174.749,126.541l-5.193-0.999c-0.262-0.05-0.542,0.085-0.63,0.301
			l-1.787,4.386c-0.089,0.221,0.052,0.44,0.315,0.494l5.238,1.038c0.27,0.054,0.554-0.084,0.641-0.306l1.744-4.427
			C175.163,126.811,175.015,126.591,174.749,126.541z M182.014,127.936l-5.276-1.014c-0.271-0.051-0.554,0.084-0.637,0.303
			l-1.736,4.435c-0.088,0.224,0.059,0.446,0.329,0.499l5.317,1.057c0.277,0.055,0.564-0.085,0.648-0.309l1.689-4.479
			C182.434,128.21,182.286,127.988,182.014,127.936z M100.435,124.262l-4.502-0.931c-0.229-0.048-0.504,0.08-0.618,0.281
			l-2.306,4.127c-0.113,0.206-0.026,0.413,0.203,0.464l4.537,0.966c0.229,0.05,0.512-0.079,0.625-0.287l2.276-4.163
			C100.763,124.514,100.667,124.311,100.435,124.262z M94.239,122.981l-6.059-1.254c-0.225-0.046-0.499,0.08-0.615,0.28
			l-2.348,4.073c-0.119,0.203-0.032,0.408,0.193,0.457l6.097,1.3c0.229,0.05,0.507-0.08,0.62-0.284l2.313-4.121
			C94.555,123.229,94.462,123.027,94.239,122.981z M106.732,125.564l-4.573-0.946c-0.229-0.047-0.51,0.079-0.624,0.284l-2.266,4.169
			c-0.116,0.209-0.02,0.418,0.212,0.47l4.604,0.98c0.235,0.051,0.518-0.08,0.631-0.291l2.239-4.205
			C107.067,125.819,106.967,125.613,106.732,125.564z M113.125,126.885l-4.645-0.958c-0.235-0.049-0.514,0.079-0.623,0.286
			l-2.234,4.211c-0.108,0.211-0.011,0.422,0.223,0.475l4.68,0.996c0.236,0.051,0.519-0.081,0.632-0.292l2.2-4.251
			C113.466,127.143,113.359,126.934,113.125,126.885z M96.786,130.179l-2.334,4.253c-0.114,0.212-0.025,0.427,0.208,0.479
			l4.625,1.022c0.233,0.051,0.521-0.08,0.636-0.296l2.303-4.29c0.113-0.211,0.015-0.423-0.22-0.474l-4.591-0.983
			C97.179,129.84,96.9,129.969,96.786,130.179z M103.128,131.541l-2.298,4.297c-0.112,0.217-0.019,0.435,0.221,0.485l6.433,1.423
			c0.242,0.056,0.527-0.081,0.641-0.297l2.257-4.351c0.109-0.213,0.003-0.429-0.233-0.479l-6.393-1.371
			C103.52,131.198,103.241,131.329,103.128,131.541z M90.542,128.836l-2.368,4.212c-0.123,0.21-0.029,0.421,0.197,0.473l4.552,1.005
			c0.233,0.053,0.515-0.08,0.634-0.292l2.34-4.247c0.111-0.209,0.02-0.418-0.211-0.466l-4.521-0.97
			C90.938,128.501,90.657,128.63,90.542,128.836z M161.611,143.647l-5.273-1.13c-0.268-0.058-0.563,0.083-0.658,0.312l-1.961,4.678
			c-0.1,0.233,0.039,0.471,0.308,0.531l5.319,1.176c0.267,0.06,0.567-0.084,0.662-0.32l1.919-4.722
			C162.016,143.939,161.879,143.705,161.611,143.647z M154.353,142.093l-7.081-1.518c-0.26-0.055-0.554,0.082-0.652,0.309
			l-2.021,4.611c-0.104,0.229,0.03,0.466,0.292,0.523l7.136,1.576c0.269,0.062,0.567-0.081,0.663-0.315l1.968-4.669
			C154.752,142.382,154.616,142.15,154.353,142.093z M111.301,133.298l-2.248,4.354c-0.111,0.219-0.008,0.438,0.233,0.492
			l33.646,7.441c0.262,0.057,0.556-0.083,0.655-0.313l2.029-4.604c0.101-0.226-0.026-0.453-0.291-0.511l-33.391-7.155
			C111.699,132.95,111.412,133.082,111.301,133.298z M84.391,127.515l-2.406,4.167c-0.119,0.208-0.033,0.418,0.188,0.468l4.484,0.99
			c0.233,0.052,0.512-0.079,0.633-0.288l2.371-4.203c0.12-0.207,0.026-0.413-0.2-0.462l-4.455-0.956
			C84.786,127.184,84.509,127.312,84.391,127.515z M119.614,128.228l-4.716-0.977c-0.236-0.047-0.516,0.08-0.624,0.291l-2.198,4.256
			c-0.111,0.213-0.005,0.428,0.235,0.479l4.747,1.013c0.244,0.053,0.528-0.081,0.637-0.295l2.165-4.294
			C119.967,128.487,119.857,128.275,119.614,128.228z M126.208,129.589l-4.789-0.99c-0.243-0.05-0.525,0.081-0.629,0.294
			l-2.161,4.299c-0.105,0.216,0.003,0.433,0.247,0.485l4.824,1.029c0.246,0.054,0.533-0.082,0.641-0.299l2.12-4.341
			C126.566,129.854,126.451,129.64,126.208,129.589z M132.905,130.974l-4.865-1.005c-0.249-0.052-0.531,0.08-0.636,0.294
			l-2.116,4.348c-0.104,0.217,0.008,0.437,0.256,0.489l4.9,1.045c0.248,0.054,0.539-0.081,0.645-0.3l2.078-4.389
			C133.269,131.239,133.152,131.024,132.905,130.974z M139.703,132.38l-4.938-1.023c-0.253-0.05-0.537,0.083-0.64,0.299
			l-2.075,4.394c-0.104,0.22,0.016,0.442,0.269,0.496l4.981,1.062c0.249,0.054,0.542-0.082,0.643-0.304l2.036-4.436
			C140.08,132.65,139.957,132.433,139.703,132.38z M146.615,133.808l-5.021-1.04c-0.253-0.051-0.539,0.083-0.638,0.303l-2.033,4.442
			c-0.102,0.222,0.023,0.445,0.276,0.5l5.062,1.08c0.261,0.056,0.55-0.082,0.65-0.307l1.99-4.484
			C146.999,134.082,146.871,133.86,146.615,133.808z M153.636,135.259l-5.102-1.055c-0.259-0.052-0.544,0.082-0.642,0.304
			l-1.985,4.49c-0.099,0.225,0.029,0.452,0.285,0.507l5.145,1.098c0.264,0.057,0.557-0.083,0.652-0.31l1.944-4.533
			C154.031,135.537,153.897,135.312,153.636,135.259z M160.773,136.734l-5.186-1.071c-0.264-0.055-0.554,0.081-0.647,0.307
			l-1.936,4.538c-0.098,0.229,0.038,0.459,0.303,0.515l5.228,1.116c0.267,0.057,0.558-0.085,0.652-0.313l1.896-4.584
			C161.175,137.016,161.036,136.791,160.773,136.734z M168.025,138.234l-5.271-1.09c-0.265-0.056-0.552,0.082-0.65,0.309
			l-1.885,4.591c-0.096,0.23,0.046,0.463,0.313,0.521l5.311,1.133c0.273,0.058,0.567-0.084,0.663-0.315l1.843-4.635
			C168.441,138.519,168.293,138.29,168.025,138.234z M184.911,141.725l-14.872-3.074c-0.269-0.056-0.562,0.082-0.655,0.312
			l-1.834,4.643c-0.09,0.233,0.057,0.469,0.327,0.527l14.997,3.199c0.282,0.06,0.581-0.085,0.67-0.322l1.719-4.759
			C185.346,142.017,185.189,141.782,184.911,141.725z M106.35,119.35l-4.5-0.897c-0.232-0.047-0.504,0.081-0.614,0.28l-2.24,4.053
			c-0.111,0.204-0.017,0.405,0.21,0.452l4.534,0.933c0.23,0.049,0.51-0.078,0.62-0.282l2.209-4.088
			C106.679,119.596,106.579,119.396,106.35,119.35z M100.152,118.115l-8.874-1.769c-0.221-0.044-0.49,0.078-0.605,0.275
			l-2.298,3.982c-0.116,0.2-0.026,0.398,0.195,0.445l8.93,1.837c0.228,0.048,0.507-0.079,0.617-0.281l2.246-4.049
			C100.474,118.357,100.38,118.16,100.152,118.115z M112.639,120.604l-4.567-0.909c-0.232-0.049-0.509,0.079-0.618,0.281
			l-2.201,4.094c-0.113,0.206-0.014,0.41,0.223,0.459l4.599,0.946c0.234,0.049,0.515-0.08,0.626-0.286l2.172-4.132
			C112.976,120.854,112.875,120.651,112.639,120.604z M119.027,121.877l-4.641-0.925c-0.234-0.048-0.51,0.081-0.616,0.285
			l-2.166,4.138c-0.11,0.205-0.006,0.412,0.229,0.461l4.674,0.961c0.24,0.05,0.52-0.08,0.629-0.289l2.13-4.172
			C119.371,122.13,119.265,121.924,119.027,121.877z M125.51,123.17l-4.71-0.94c-0.235-0.046-0.517,0.082-0.618,0.289l-2.134,4.18
			c-0.105,0.208,0,0.417,0.244,0.466l4.745,0.978c0.239,0.05,0.523-0.081,0.626-0.292l2.096-4.217
			C125.864,123.426,125.75,123.218,125.51,123.17z M132.096,124.482l-4.783-0.953c-0.241-0.047-0.521,0.081-0.628,0.288
			l-2.085,4.225c-0.106,0.211,0.008,0.425,0.25,0.473l4.82,0.992c0.247,0.051,0.527-0.081,0.629-0.296l2.058-4.261
			C132.457,124.741,132.342,124.533,132.096,124.482z M138.785,125.815l-4.86-0.969c-0.245-0.048-0.523,0.082-0.626,0.292
			l-2.048,4.269c-0.103,0.214,0.012,0.428,0.262,0.479l4.896,1.008c0.247,0.052,0.532-0.082,0.633-0.298l2.013-4.305
			C139.154,126.076,139.033,125.865,138.785,125.815z M145.576,127.17l-4.936-0.985c-0.249-0.049-0.528,0.083-0.629,0.296
			l-2.008,4.313c-0.099,0.216,0.021,0.433,0.277,0.484l4.971,1.022c0.253,0.054,0.539-0.081,0.641-0.299l1.967-4.353
			C145.958,127.435,145.831,127.22,145.576,127.17z M152.478,128.547l-5.012-1.001c-0.254-0.051-0.54,0.083-0.636,0.297l-1.961,4.36
			c-0.101,0.219,0.027,0.437,0.283,0.489l5.054,1.04c0.258,0.053,0.543-0.081,0.643-0.301l1.92-4.403
			C152.867,128.813,152.736,128.597,152.478,128.547z M159.49,129.943l-5.097-1.016c-0.258-0.052-0.541,0.082-0.634,0.301
			l-1.917,4.403c-0.096,0.224,0.034,0.444,0.294,0.498l5.137,1.057c0.262,0.054,0.551-0.083,0.646-0.305l1.875-4.449
			C159.885,130.213,159.747,129.994,159.49,129.943z M166.613,131.362l-5.177-1.031c-0.259-0.053-0.55,0.083-0.639,0.303
			l-1.87,4.454c-0.093,0.223,0.045,0.449,0.309,0.502l5.219,1.074c0.265,0.055,0.555-0.083,0.646-0.309l1.826-4.497
			C167.017,131.638,166.875,131.415,166.613,131.362z M173.852,132.807l-5.262-1.049c-0.267-0.055-0.551,0.084-0.644,0.305
			l-1.819,4.506c-0.089,0.225,0.054,0.452,0.317,0.505l5.308,1.094c0.271,0.055,0.563-0.084,0.649-0.312l1.778-4.545
			C174.266,133.085,174.121,132.86,173.852,132.807z M181.208,134.272l-5.346-1.064c-0.271-0.055-0.56,0.084-0.65,0.306
			l-1.766,4.554c-0.091,0.23,0.061,0.461,0.333,0.517l5.394,1.109c0.271,0.057,0.567-0.084,0.65-0.314l1.726-4.599
			C181.632,134.555,181.483,134.327,181.208,134.272z M187.926,133.412l-3.917-0.771c-0.274-0.055-0.562,0.084-0.647,0.31
			l-2.473,6.646c-0.087,0.231,0.066,0.464,0.343,0.521l3.965,0.815c0.279,0.058,0.573-0.086,0.657-0.317l2.423-6.696
			C188.357,133.691,188.2,133.466,187.926,133.412z M189.396,129.354l-5.363-1.03c-0.27-0.052-0.558,0.086-0.641,0.305l-1.683,4.486
			c-0.087,0.223,0.066,0.449,0.344,0.504l5.408,1.073c0.273,0.055,0.565-0.085,0.647-0.312l1.639-4.526
			C189.831,129.632,189.673,129.408,189.396,129.354z M191.562,123.396l-9.179-1.7c-0.271-0.051-0.551,0.083-0.632,0.298
			l-1.674,4.35c-0.087,0.219,0.064,0.438,0.337,0.489l9.254,1.771c0.275,0.054,0.562-0.084,0.644-0.307l1.596-4.416
			C191.987,123.662,191.833,123.445,191.562,123.396z M179.892,117.543l-0.914,2.338c-0.085,0.212,0.062,0.422,0.324,0.47
			l5.221,0.963c0.269,0.049,0.549-0.086,0.628-0.299l0.895-2.359c0.077-0.21-0.071-0.419-0.335-0.467l-5.2-0.94
			C180.252,117.202,179.974,117.333,179.892,117.543z M175.415,149.873l-0.839,2.236c-0.094,0.241,0.061,0.488,0.347,0.552
			l5.569,1.23c0.283,0.063,0.587-0.083,0.678-0.327l0.816-2.26c0.087-0.243-0.07-0.488-0.352-0.551l-5.547-1.204
			C175.806,149.487,175.507,149.632,175.415,149.873z M168.377,148.339l-0.864,2.211c-0.093,0.241,0.058,0.483,0.334,0.547
			l5.483,1.211c0.28,0.064,0.584-0.083,0.671-0.327l0.842-2.232c0.093-0.24-0.059-0.483-0.342-0.542l-5.458-1.188
			C168.766,147.959,168.47,148.101,168.377,148.339z M169.545,145.349l-0.854,2.186c-0.092,0.237,0.058,0.478,0.33,0.537
			l5.462,1.188c0.28,0.06,0.576-0.085,0.666-0.324l0.835-2.207c0.087-0.237-0.066-0.477-0.344-0.537l-5.434-1.161
			C169.932,144.972,169.635,145.112,169.545,145.349z M161.448,146.829l-0.886,2.188c-0.096,0.236,0.048,0.479,0.32,0.537
			l5.399,1.194c0.278,0.061,0.578-0.083,0.669-0.322l0.867-2.209c0.093-0.238-0.056-0.479-0.334-0.539l-5.371-1.168
			C161.842,146.451,161.543,146.594,161.448,146.829z M172.823,116.262l-0.939,2.313c-0.087,0.209,0.055,0.418,0.312,0.464
			l5.142,0.949c0.264,0.05,0.546-0.084,0.627-0.295l0.918-2.335c0.082-0.21-0.062-0.416-0.323-0.462l-5.116-0.926
			C173.186,115.924,172.908,116.054,172.823,116.262z M165.869,115.002l-0.972,2.287c-0.085,0.208,0.05,0.415,0.306,0.462
			l5.061,0.935c0.259,0.048,0.537-0.086,0.623-0.294l0.943-2.31c0.087-0.208-0.053-0.412-0.312-0.459l-5.032-0.908
			C166.228,114.668,165.954,114.796,165.869,115.002z M159.014,113.761l-0.988,2.265c-0.092,0.205,0.039,0.409,0.292,0.456
			l4.979,0.919c0.253,0.047,0.532-0.083,0.622-0.292l0.97-2.284c0.087-0.204-0.048-0.408-0.301-0.453l-4.954-0.896
			C159.379,113.43,159.105,113.558,159.014,113.761z M152.271,112.538l-1.015,2.242c-0.095,0.202,0.031,0.405,0.282,0.45
			l4.902,0.904c0.251,0.046,0.524-0.083,0.615-0.287l0.995-2.262c0.089-0.204-0.038-0.403-0.288-0.448l-4.885-0.884
			C152.634,112.21,152.359,112.336,152.271,112.538z M145.185,111.255l-1.038,2.218c-0.099,0.201,0.024,0.401,0.271,0.445
			l5.271,0.975c0.247,0.045,0.523-0.085,0.615-0.287l1.02-2.237c0.094-0.203-0.034-0.401-0.282-0.445l-5.248-0.949
			C145.55,110.931,145.281,111.056,145.185,111.255z M138.215,109.994l-1.062,2.192c-0.1,0.198,0.018,0.398,0.259,0.441l5.187,0.954
			c0.244,0.047,0.52-0.081,0.612-0.281l1.047-2.214c0.091-0.199-0.032-0.396-0.271-0.439l-5.167-0.934
			C138.584,109.672,138.31,109.794,138.215,109.994z M131.358,108.749l-1.089,2.173c-0.099,0.195,0.011,0.391,0.251,0.434
			l5.104,0.942c0.238,0.043,0.511-0.081,0.609-0.28l1.065-2.19c0.097-0.198-0.02-0.392-0.255-0.435l-5.087-0.918
			C131.724,108.431,131.455,108.555,131.358,108.749z M124.605,107.526l-1.107,2.147c-0.102,0.196,0.004,0.389,0.237,0.432
			l5.025,0.926c0.235,0.044,0.505-0.08,0.604-0.276l1.09-2.169c0.096-0.193-0.014-0.387-0.247-0.429l-5.004-0.904
			C124.969,107.211,124.708,107.335,124.605,107.526z M117.959,106.323l-1.126,2.127c-0.103,0.192-0.003,0.383,0.225,0.423
			l4.944,0.913c0.231,0.042,0.501-0.081,0.604-0.274l1.113-2.146c0.094-0.193-0.01-0.383-0.24-0.425l-4.926-0.89
			C118.33,106.011,118.063,106.133,117.959,106.323z M111.417,105.138l-1.148,2.104c-0.104,0.191-0.007,0.38,0.216,0.422
			l4.869,0.896c0.229,0.042,0.499-0.08,0.6-0.272l1.134-2.124c0.102-0.188-0.001-0.377-0.227-0.418l-4.85-0.876
			C111.785,104.828,111.522,104.949,111.417,105.138z M104.977,103.971l-1.172,2.083c-0.107,0.189-0.014,0.375,0.209,0.416
			l4.793,0.885c0.224,0.041,0.492-0.081,0.598-0.271l1.15-2.103c0.104-0.188,0.009-0.372-0.216-0.414l-4.776-0.862
			C105.343,103.664,105.08,103.782,104.977,103.971z M98.63,102.821l-1.187,2.062c-0.111,0.188-0.021,0.372,0.2,0.412l4.72,0.869
			c0.219,0.041,0.483-0.079,0.591-0.269l1.173-2.079c0.104-0.188,0.013-0.369-0.208-0.41l-4.7-0.849
			C98.999,102.518,98.738,102.637,98.63,102.821z"/>
		<path opacity="0.3" fill="#CCCCCC" d="M135.465,175.765c-0.259,0.602-0.986,0.956-1.626,0.79l-36.826-9.556
			c-0.582-0.151-0.818-0.733-0.528-1.297l11.841-23.095c0.262-0.515,0.932-0.829,1.496-0.701l35.565,8.02
			c0.614,0.138,0.923,0.693,0.688,1.242L135.465,175.765z"/>
	</g>
	<path fill="#FFFFFF" d="M130.586,236.079c0,0-3.133-11.306-4.758-14.76c-1.624-3.453-3.061-6.973-4.945-9.108
		s-5.078-4.621-7.574-8.998c-2.497-4.377-3.46-6.664-4.795-8.188c-1.334-1.524-2-4.043-2.581-7.902
		c-0.581-3.858-4.189-10.091-2.202-13.617c1.987-3.527,2.744-3.79,3.662-6.013c0.918-2.224,1.979-4.158,3.782-3.475
		c1.054,0.399,1.932,1.782,1.932,1.782s0.687-3.747,1.078-5.537c0.442-2.015,0.946-3.841,2.007-5.055
		c1.057-1.215,2.229-3.315,4.403-3.395c2.171-0.079,2.969,0.024,3.849,1.579c0.489,0.862,0.489,0.862,0.489,0.862
		s-0.14-2.168,0.121-3.486c0.26-1.317,1.744-3.737,3.816-3.739c2.073-0.002,3.768,0.127,4.768,2.147
		c1.206,2.439,0.879,2.956,0.931,2.554c0,0,2.306-2.495,5.591-1.439c3.287,1.057,3.629,1.192,4.333,2.725
		c0.702,1.532,0.137,1.729,0.137,1.729s2.634-1.551,4.682,1.417c2.049,2.968,2.754,3.78,2.794,4.867
		c0.04,1.086-1.046,6.727-0.755,10.712c0.293,4.001,1.944,11.423,2.603,18.175c0.658,6.751-0.836,11.333,0.154,15.515
		c0.99,4.183,3.762,14.09,8.181,22.41c4.418,8.32,4.228,9.105,4.228,9.105"/>
	<path opacity="0.1" d="M111.175,164.019c-0.338-0.128-0.644-0.139-0.933-0.098c0.237,1,0.858,4.007,0.559,7.166
		c-0.365,3.871-2.206,6.605-1.308,10.1c0.899,3.495,1.105,6.772,1.709,2.113c0.317-2.456,1.863-14.404,1.293-18.282
		C112.149,164.633,111.685,164.212,111.175,164.019z M118.972,203.9c-2.722-0.797-5.385-2.317-7.24-3.529
		c0.455,0.838,0.969,1.775,1.577,2.842c2.496,4.377,5.689,6.862,7.574,8.998c1.495,1.692,2.706,4.257,3.953,6.966
		c0.145-0.756,0.32-1.831,0.504-3.506C126.102,208.743,123.934,205.354,118.972,203.9z M147.034,168.344
		c-0.491-1.415-0.733-5.298-0.497-7.632c0.233-2.335-1.795-3.892-1.795-3.892s-0.527,4.287-0.562,6.084
		c-0.034,1.795,1.883,7.982,2.799,8.473S147.527,169.759,147.034,168.344z M123.398,166.163c1.198-2.118,2.078-7.759,1.806-9.833
		c-0.156-1.187-0.497-2.245-0.766-2.944c-0.168-0.297-0.336-0.527-0.508-0.726c-0.364,0.308-1.306,1.217-1.473,2.502
		c-0.207,1.596,0.917,4.917,1.127,6.43C123.794,163.106,122.2,168.281,123.398,166.163z M136.028,153.153
		c0.109-1.058,0.354-2.006,0.545-2.733c-1.253,0.502-2.004,1.312-2.004,1.312c-0.001,0.003-0.001,0.004-0.001,0.006
		c-0.001-0.006-0.003-0.021-0.003-0.027c-0.069,0.861-0.113,2.224-0.016,4.25c0.199,4.1,0.075,6.994,1.059,8.271
		c0.984,1.275,2.633,2.097,2.182-1.204C137.339,159.725,135.757,155.77,136.028,153.153z"/>
	<path fill="none" stroke="#E85C61" stroke-miterlimit="10" d="M130.586,236.079c0,0-3.133-11.306-4.758-14.76
		c-1.624-3.453-3.061-6.973-4.945-9.108s-5.078-4.621-7.574-8.998c-2.497-4.377-3.46-6.664-4.795-8.188
		c-1.334-1.524-2-4.043-2.581-7.902c-0.581-3.858-4.189-10.091-2.202-13.617c1.987-3.527,2.744-3.79,3.662-6.013
		c0.918-2.224,1.979-4.158,3.782-3.475c1.054,0.399,1.932,1.782,1.932,1.782s0.687-3.747,1.078-5.537
		c0.442-2.015,0.946-3.841,2.007-5.055c1.057-1.215,2.229-3.315,4.403-3.395c2.171-0.079,2.969,0.024,3.849,1.579
		c0.489,0.862,0.489,0.862,0.489,0.862s-0.14-2.168,0.121-3.486c0.26-1.317,1.744-3.737,3.816-3.739
		c2.073-0.002,3.768,0.127,4.768,2.147c1.206,2.439,0.879,2.956,0.931,2.554c0,0,2.306-2.495,5.591-1.439
		c3.287,1.057,3.629,1.192,4.333,2.725c0.702,1.532,0.137,1.729,0.137,1.729s2.634-1.551,4.682,1.417
		c2.049,2.968,2.754,3.78,2.794,4.867c0.04,1.086-1.046,6.727-0.755,10.712c0.293,4.001,1.944,11.423,2.603,18.175
		c0.658,6.751-0.836,11.333,0.154,15.515c0.99,4.183,3.762,14.09,8.181,22.41c4.418,8.32,4.228,9.105,4.228,9.105"/>
	<path fill="none" stroke="#E85C61" stroke-miterlimit="10" d="M113.107,165.801c0,0-0.8,3.411-1.133,5.98s-0.393,8.598-0.393,8.598
		"/>
	<path fill="none" stroke="#E85C61" stroke-miterlimit="10" d="M124.933,154.256c0,0,0.569,2.79,0.226,5.448
		c-0.345,2.658-0.562,4.341-0.562,4.341"/>
	<path fill="none" stroke="#E85C61" stroke-miterlimit="10" d="M134.569,151.731c0,0-0.104,3.592,0.06,6.495
		c0.166,2.904,0.411,5.188,0.411,5.188"/>
	<path fill="none" stroke="#E85C61" stroke-miterlimit="10" d="M144.842,154.294c0,0-0.869,6.223-0.619,9.858
		c0.25,3.637,2.021,5.937,2.021,5.937"/>
	<path fill="#FFFFFF" d="M29.801,179.472c6.799-6.598,28.158-25.822,31.523-27.091c5.873-2.214,11.65-0.925,17.157-3.096
		c5.506-2.17,7.564-3.435,11.297-5.834c3.734-2.4,5.315-4.178,8.427-5.937c3.11-1.76,3.859-1.303,5.064-2.948
		c1.204-1.646,5.372-6.691,3.444-9.194c-1.93-2.501-5.615-1.177-6.816-0.251s-3.628,3.674-5.473,4.697
		c-1.844,1.022-4.939,1.974-4.939,1.974s-0.84-3.263-0.667-4.592c0.172-1.329,0.391-3.012,0.391-3.012s0.712-0.629,1.734-1.578
		c1.024-0.948,1.837-1.653,1.837-1.653s2.759,0.267,4.356-0.247c1.597-0.515,3.872-1.392,3.872-1.392s1.838,0.418,3.155,0.68
		c1.318,0.26,3.602,0.015,3.602,0.015s1.912,1.239,3.387,0.979s3.974-1.468,2.574-3.18c-1.4-1.713-4.056-2.778-4.742-3.047
		c-0.686-0.269-1.306-0.349-1.306-0.349s3.511,0.725,4.193-1.079c0.684-1.803-0.695-2.973-1.89-3.488
		c-1.197-0.515-9.146-2.444-11.437-2.831s-4.729-0.342-4.729-0.342s-2.889-1.365-5.033-2.183c-2.146-0.819-3.271,0.207-4.583,1.299
		c-1.312,1.091-6.22,5.591-6.22,5.591s-2.029,0.368-2.73,0.908c-0.699,0.54-1.807,2.828-4.2,5.312s-12.814,13.387-15.89,14.881
		c-3.075,1.493-10.147,4.632-11.868,5.4s-7.814,7.456-11.082,9.735c-3.268,2.28-10.188,6.341-10.188,6.341"/>
	<path opacity="0.1" d="M88.819,127.2l0.096-0.739c-0.506,1.02-1.616,3.368-1.417,3.99c0.257,0.799,0.956,1.655,1.695,1.525
		c0.172-0.03,0.358-0.132,0.543-0.264c-0.155,0.05-0.25,0.079-0.25,0.079S88.646,128.529,88.819,127.2z M111.767,120.801
		c0.052,0.002,0.095-0.003,0.145-0.003c0.017-0.007,0.034-0.013,0.052-0.018C111.899,120.786,111.84,120.792,111.767,120.801z
		 M110.412,120.444c-1.139-0.598-1.887-0.74-1.967-1.674c-0.082-0.935-0.727,0.92-1.63,0.938c-0.904,0.018-4.129-0.129-4.373-1.377
		c-0.243-1.248-0.183-0.68-1.239,0.188c-1.059,0.867-5.177,2.406-6.786,1.973c-1.12-0.302-1.138-0.041-1.227,0.496
		c0.826,0.051,2.725,0.115,3.947-0.277c1.597-0.515,3.872-1.392,3.872-1.392s1.838,0.418,3.155,0.68
		c1.318,0.26,3.602,0.015,3.602,0.015s1.162,0.746,2.375,0.954c0.66-0.066,1.22-0.124,1.626-0.166
		C111.393,120.79,110.919,120.711,110.412,120.444z M101.177,112.257c2.125,0.467,6.712,2.501,8.056,2.609
		c-0.091-0.038-0.186-0.075-0.248-0.101c-0.457-0.18-0.871-0.271-1.105-0.313c0.462,0.074,1.65,0.219,2.634-0.044
		c0.793-0.561,1.409-1.427,1.475-1.519c0-0.009,0.004-0.018,0.006-0.024c-0.131,0.02-3.228,0.5-4.937,0.089
		c-1.747-0.422-6.394-2.102-7.734-2.187c-1.341-0.084-5.813,0.373-8.688,1.353c-2.875,0.979-4.04,1.279-4.04,1.279
		S99.051,111.79,101.177,112.257z M50.526,157.152c-0.386,1.907-1.533,4.107-2.551,5.793c6.175-5.376,11.763-9.967,13.35-10.564
		c3.261-1.229,6.491-1.379,9.663-1.641l0.546-0.327c0,0-7.651-0.401-13.664,1.161C51.858,153.136,51.274,153.466,50.526,157.152z
		 M88.784,104.494c-2.146-0.819-3.271,0.207-4.583,1.299c-1.114,0.926-4.803,4.294-5.898,5.299c2.027-0.225,4.996-1.083,7.598-2.062
		c2.936-1.104,7.917-2.354,7.917-2.354S90.928,105.312,88.784,104.494z"/>
	<path fill="none" stroke="#E85C61" stroke-miterlimit="10" d="M29.801,179.472c6.799-6.598,28.158-25.822,31.523-27.091
		c5.873-2.214,11.65-0.925,17.157-3.096c5.506-2.17,7.564-3.435,11.297-5.834c3.734-2.4,5.315-4.178,8.427-5.937
		c3.11-1.76,3.859-1.303,5.064-2.948c1.204-1.646,5.372-6.691,3.444-9.194c-1.93-2.501-5.615-1.177-6.816-0.251
		s-3.628,3.674-5.473,4.697c-1.844,1.022-4.939,1.974-4.939,1.974s-0.84-3.263-0.667-4.592c0.172-1.329,0.391-3.012,0.391-3.012
		s0.712-0.629,1.734-1.578c1.024-0.948,1.837-1.653,1.837-1.653s2.759,0.267,4.356-0.247c1.597-0.515,3.872-1.392,3.872-1.392
		s1.838,0.418,3.155,0.68c1.318,0.26,3.602,0.015,3.602,0.015s1.912,1.239,3.387,0.979s3.974-1.468,2.574-3.18
		c-1.4-1.713-4.056-2.778-4.742-3.047c-0.686-0.269-1.306-0.349-1.306-0.349s3.511,0.725,4.193-1.079
		c0.684-1.803-0.695-2.973-1.89-3.488c-1.197-0.515-9.146-2.444-11.437-2.831s-4.729-0.342-4.729-0.342s-2.889-1.365-5.033-2.183
		c-2.146-0.819-3.271,0.207-4.583,1.299c-1.312,1.091-6.22,5.591-6.22,5.591s-2.029,0.368-2.73,0.908
		c-0.699,0.54-1.807,2.828-4.2,5.312s-12.814,13.387-15.89,14.881c-3.075,1.493-10.147,4.632-11.868,5.4s-7.814,7.456-11.082,9.735
		c-3.268,2.28-10.188,6.341-10.188,6.341"/>
	<path fill="none" stroke="#E85C61" stroke-miterlimit="10" d="M77.981,111.384c0,0,1.483-0.305,2.719-0.46
		c1.236-0.156,5.793-1.952,7.769-2.598s5.349-1.649,5.349-1.649"/>
	<path fill="none" stroke="#E85C61" stroke-miterlimit="10" d="M107.679,114.417c0,0-3.719-1.203-5.483-1.837
		c-1.764-0.634-2.445-0.587-3.544-0.458c-1.097,0.128-10.993,1.414-10.993,1.414"/>
</g>
</svg>
